<svg width="26" height="25" viewBox="0 0 26 25" fill="none" xmlns="http://www.w3.org/2000/svg">
<path fill-rule="evenodd" clip-rule="evenodd" d="M2.89087 6.2479C2.89087 5.14317 3.32972 4.08369 4.11088 3.30253C4.89204 2.52137 5.95152 2.08252 7.05625 2.08252H19.5524C20.6571 2.08252 21.7166 2.52137 22.4977 3.30253C23.2789 4.08369 23.7178 5.14317 23.7178 6.2479V18.744C23.7178 19.8488 23.2789 20.9082 22.4977 21.6894C21.7166 22.4706 20.6571 22.9094 19.5524 22.9094H7.05625C5.95152 22.9094 4.89204 22.4706 4.11088 21.6894C3.32972 20.9082 2.89087 19.8488 2.89087 18.744V6.2479ZM7.05625 4.16521C6.50388 4.16521 5.97414 4.38463 5.58356 4.77521C5.19298 5.16579 4.97356 5.69553 4.97356 6.2479V18.744C4.97356 19.2964 5.19298 19.8261 5.58356 20.2167C5.97414 20.6073 6.50388 20.8267 7.05625 20.8267H13.3043V13.5373H12.263C11.9868 13.5373 11.7219 13.4276 11.5266 13.2323C11.3313 13.037 11.2216 12.7721 11.2216 12.496C11.2216 12.2198 11.3313 11.9549 11.5266 11.7596C11.7219 11.5643 11.9868 11.4546 12.263 11.4546H13.3043V9.8926C13.3043 8.92597 13.6883 7.99892 14.3718 7.31541C15.0553 6.63189 15.9824 6.2479 16.949 6.2479H17.5738C17.85 6.2479 18.1149 6.35761 18.3102 6.5529C18.5055 6.74819 18.6152 7.01306 18.6152 7.28924C18.6152 7.56542 18.5055 7.83029 18.3102 8.02558C18.1149 8.22087 17.85 8.33059 17.5738 8.33059H16.949C16.7439 8.33059 16.5408 8.37099 16.3513 8.44949C16.1617 8.52799 15.9896 8.64304 15.8445 8.78809C15.6995 8.93314 15.5844 9.10533 15.5059 9.29484C15.4274 9.48436 15.387 9.68747 15.387 9.8926V11.4546H17.5738C17.85 11.4546 18.1149 11.5643 18.3102 11.7596C18.5055 11.9549 18.6152 12.2198 18.6152 12.496C18.6152 12.7721 18.5055 13.037 18.3102 13.2323C18.1149 13.4276 17.85 13.5373 17.5738 13.5373H15.387V20.8267H19.5524C20.1047 20.8267 20.6345 20.6073 21.0251 20.2167C21.4156 19.8261 21.6351 19.2964 21.6351 18.744V6.2479C21.6351 5.69553 21.4156 5.16579 21.0251 4.77521C20.6345 4.38463 20.1047 4.16521 19.5524 4.16521H7.05625Z" fill="#C4B6B6"/>
</svg>
