<svg width="26" height="25" viewBox="0 0 26 25" fill="none" xmlns="http://www.w3.org/2000/svg">
<path fill-rule="evenodd" clip-rule="evenodd" d="M6.38559 2.08252C5.28087 2.08252 4.22139 2.52137 3.44023 3.30253C2.65907 4.08369 2.22021 5.14317 2.22021 6.2479V18.744C2.22021 19.8488 2.65907 20.9082 3.44023 21.6894C4.22139 22.4706 5.28087 22.9094 6.38559 22.9094H18.8817C19.9865 22.9094 21.0459 22.4706 21.8271 21.6894C22.6082 20.9082 23.0471 19.8488 23.0471 18.744V6.2479C23.0471 5.14317 22.6082 4.08369 21.8271 3.30253C21.0459 2.52137 19.9865 2.08252 18.8817 2.08252H6.38559ZM4.3029 6.2479C4.3029 5.69553 4.52233 5.16579 4.91291 4.77521C5.30349 4.38463 5.83323 4.16521 6.38559 4.16521H18.8817C19.4341 4.16521 19.9638 4.38463 20.3544 4.77521C20.745 5.16579 20.9644 5.69553 20.9644 6.2479V18.744C20.9644 19.2964 20.745 19.8261 20.3544 20.2167C19.9638 20.6073 19.4341 20.8267 18.8817 20.8267H6.38559C5.83323 20.8267 5.30349 20.6073 4.91291 20.2167C4.52233 19.8261 4.3029 19.2964 4.3029 18.744V6.2479ZM9.50962 11.4546C9.50962 11.1784 9.39991 10.9136 9.20462 10.7183C9.00933 10.523 8.74446 10.4133 8.46828 10.4133C8.1921 10.4133 7.92723 10.523 7.73194 10.7183C7.53665 10.9136 7.42694 11.1784 7.42694 11.4546V17.7027C7.42694 17.9789 7.53665 18.2437 7.73194 18.439C7.92723 18.6343 8.1921 18.744 8.46828 18.744C8.74446 18.744 9.00933 18.6343 9.20462 18.439C9.39991 18.2437 9.50962 17.9789 9.50962 17.7027V11.4546ZM10.0303 7.80991C10.0303 8.22419 9.86573 8.62149 9.57279 8.91443C9.27986 9.20736 8.88255 9.37193 8.46828 9.37193C8.05401 9.37193 7.6567 9.20736 7.36377 8.91443C7.07083 8.62149 6.90626 8.22419 6.90626 7.80991C6.90626 7.39564 7.07083 6.99834 7.36377 6.7054C7.6567 6.41247 8.05401 6.2479 8.46828 6.2479C8.88255 6.2479 9.27986 6.41247 9.57279 6.7054C9.86573 6.99834 10.0303 7.39564 10.0303 7.80991ZM12.6337 10.4133C12.9877 10.4133 13.3001 10.5903 13.4876 10.859C14.0243 10.5665 14.6258 10.4132 15.237 10.4133C17.4863 10.4133 18.8817 12.4189 18.8817 14.1319V17.7027C18.8817 17.9789 18.772 18.2437 18.5767 18.439C18.3814 18.6343 18.1166 18.744 17.8404 18.744C17.5642 18.744 17.2993 18.6343 17.104 18.439C16.9087 18.2437 16.799 17.9789 16.799 17.7027V14.1309C16.799 13.3311 16.1117 12.4949 15.237 12.4949C14.6914 12.4949 14.0884 12.7917 13.675 13.4977V17.7027C13.675 17.9789 13.5653 18.2437 13.37 18.439C13.1747 18.6343 12.9098 18.744 12.6337 18.744C12.3575 18.744 12.0926 18.6343 11.8973 18.439C11.702 18.2437 11.5923 17.9789 11.5923 17.7027V11.4546C11.5923 11.1784 11.702 10.9136 11.8973 10.7183C12.0926 10.523 12.3575 10.4133 12.6337 10.4133Z" fill="#C4B6B6"/>
</svg>
